<?xml version="1.0" standalone="no"?>
<!DOCTYPE svg PUBLIC "-//W3C//DTD SVG 20010904//EN"
 "http://www.w3.org/TR/2001/REC-SVG-20010904/DTD/svg10.dtd">
<svg version="1.0" xmlns="http://www.w3.org/2000/svg"
 width="300.000000pt" height="146.000000pt" viewBox="0 0 300.000000 146.000000"
 preserveAspectRatio="xMidYMid meet">
<metadata>
Created by potrace 1.10, written by Peter Selinger 2001-2011
</metadata>
<g transform="translate(0.000000,146.000000) scale(0.100000,-0.100000)"
fill="#000000" stroke="none">
<path d="M2099 1226 c-106 -37 -187 -102 -258 -208 -44 -66 -39 -80 10 -25 25
29 65 59 107 79 l66 33 243 4 c294 4 293 4 189 -97 l-67 -65 23 -46 c33 -66
33 -215 0 -282 -93 -189 -325 -257 -493 -144 -27 19 -49 30 -49 25 0 -18 118
-113 176 -140 397 -191 826 229 635 622 l-27 58 94 94 c52 52 91 99 88 105 -5
8 -112 11 -339 11 -322 0 -334 -1 -398 -24z m671 -13 c0 -8 -28 -44 -62 -80
-84 -86 -84 -86 -60 -147 36 -91 43 -123 43 -203 0 -196 -146 -378 -340 -423
-58 -14 -186 -9 -215 7 -15 8 -6 13 49 27 76 19 123 46 182 105 102 102 129
237 82 403 l-13 47 52 55 c57 60 67 97 32 116 -22 12 -421 15 -499 4 -49 -7
-49 -4 9 38 34 24 69 39 140 57 19 5 162 9 318 9 249 1 282 -1 282 -15z"/>
<path d="M1953 868 c-19 -25 -21 -46 -7 -67 27 -38 94 -18 94 29 0 40 -64 68
-87 38z"/>
<path d="M1744 750 c-56 -23 -81 -101 -47 -150 36 -53 78 -63 133 -35 37 19
50 43 50 90 0 49 -15 74 -55 91 -39 16 -51 16 -81 4z m77 -50 c24 -13 26 -66
2 -92 -35 -39 -103 -7 -103 48 0 43 56 67 101 44z"/>
<path d="M600 716 c0 -7 9 -25 21 -39 l20 -27 -25 -37 c-15 -21 -26 -43 -26
-50 0 -24 30 -13 45 17 9 17 19 30 23 30 4 0 16 -13 25 -30 17 -29 47 -41 47
-20 0 6 -12 28 -26 50 l-26 39 22 30 c20 29 20 51 -1 51 -5 0 -15 -11 -21 -25
-6 -14 -14 -25 -18 -25 -4 0 -13 11 -20 25 -14 27 -40 34 -40 11z"/>
<path d="M1529 715 c-52 -28 -58 -109 -11 -145 28 -22 82 -26 100 -8 22 22 13
30 -24 23 -44 -8 -74 15 -74 55 0 38 23 54 65 47 19 -3 37 -1 41 5 17 27 -58
45 -97 23z"/>
<path d="M210 705 c0 -9 9 -15 23 -15 22 0 24 -3 23 -67 -1 -57 2 -68 17 -71
15 -3 17 5 17 67 0 62 2 70 20 73 45 7 22 23 -37 26 -52 2 -63 0 -63 -13z"/>
<path d="M409 715 c0 -3 0 -36 0 -75 0 -38 0 -75 0 -81 1 -6 22 -9 54 -7 38 2
52 7 52 18 0 11 -10 15 -37 14 -32 -1 -38 2 -38 20 0 17 6 21 33 21 22 0 32 5
32 15 0 10 -12 16 -32 18 -50 5 -44 32 7 32 29 0 40 4 40 15 0 12 -13 15 -55
15 -30 0 -55 -2 -56 -5z"/>
<path d="M787 714 c-10 -11 3 -24 24 -24 17 0 19 -7 19 -71 0 -62 2 -70 18
-67 14 3 17 15 17 71 0 63 1 67 23 67 13 0 22 6 22 15 0 12 -13 15 -58 15 -32
0 -62 -3 -65 -6z"/>
<path d="M982 638 l3 -83 55 0 c42 0 55 3 55 15 0 11 -11 15 -40 15 -33 0 -40
3 -40 19 0 16 7 20 35 20 49 1 49 31 0 32 -24 0 -36 5 -38 16 -3 13 6 17 39
20 23 2 44 9 47 16 3 9 -13 12 -58 12 l-61 0 3 -82z"/>
<path d="M1170 635 c0 -69 3 -85 15 -85 10 0 15 10 15 30 0 23 5 30 19 30 11
0 23 -12 31 -30 12 -29 29 -38 43 -23 4 3 0 17 -9 31 -14 22 -14 25 0 41 22
24 20 68 -3 81 -11 5 -40 10 -65 10 l-46 0 0 -85z m95 30 c0 -15 -8 -21 -32
-23 -30 -3 -33 -1 -33 23 0 24 3 26 33 23 24 -2 32 -8 32 -23z"/>
<path d="M1950 660 c0 -6 50 -10 130 -10 80 0 130 4 130 10 0 6 -50 10 -130
10 -80 0 -130 -4 -130 -10z"/>
<path d="M1950 600 c0 -6 70 -10 190 -10 120 0 190 4 190 10 0 6 -70 10 -190
10 -120 0 -190 -4 -190 -10z"/>
<path d="M1374 579 c-9 -15 11 -33 30 -26 9 4 13 13 10 22 -7 17 -30 20 -40 4z"/>
<path d="M1953 538 c-2 -5 55 -8 126 -8 72 0 131 3 131 8 0 4 -57 7 -126 7
-69 0 -128 -3 -131 -7z"/>
</g>
</svg>
